<svg viewBox="0 0 90 62" fill="none" xmlns="http://www.w3.org/2000/svg">
  <path fill-rule="evenodd" clip-rule="evenodd"
    d="M17.9398 32.1133L29.3538 38.1823L32.6398 32.0013L23.0828 26.9202V18.8953L44.5828 7.46325L71.0308 21.5263L74.3168 15.3453L46.2268 0.41025C45.1998 -0.13675 43.9668 -0.13675 42.9398 0.41025L17.9398 13.7032C16.7968 14.3103 16.0828 15.4982 16.0828 16.7922V29.0233C16.0828 30.3173 16.7968 31.5053 17.9398 32.1133ZM42.9393 61.4061C43.4533 61.6791 44.0193 61.816 44.5833 61.816C45.1473 61.816 45.7133 61.6791 46.2273 61.4061L71.2273 48.1131C72.3693 47.5051 73.0833 46.3171 73.0833 45.023V32.7931C73.0833 31.4991 72.3693 30.3101 71.2273 29.7031L59.8133 23.6331L56.5273 29.8141L66.0833 34.8951V42.9201L44.5833 54.3521L18.1363 40.2901L14.8503 46.4701L42.9393 61.4061Z"
    fill="white" />
  <g opacity="0.2">
    <path fill-rule="evenodd" clip-rule="evenodd"
      d="M44.5834 7.46315L52.0374 3.49915L74.3164 15.3451L71.0304 21.5261L44.5834 7.46315Z"
      fill="url(#paint0_linear)" />
    <path fill-rule="evenodd" clip-rule="evenodd"
      d="M23.0834 18.8952V10.9662L42.9394 0.410156L44.5834 7.46316L23.0834 18.8952Z" fill="url(#paint1_linear)" />
    <path fill-rule="evenodd" clip-rule="evenodd" d="M23.0834 26.9201L16.0834 23.2381V16.7921L23.0834 18.8951V26.9201Z"
      fill="url(#paint2_linear)" />
    <path fill-rule="evenodd" clip-rule="evenodd"
      d="M44.5834 54.3532L37.1294 58.3172L14.8504 46.4712L18.1364 40.2902L44.5834 54.3532Z"
      fill="url(#paint3_linear)" />
    <path fill-rule="evenodd" clip-rule="evenodd"
      d="M66.0803 42.9202V50.8492L46.2243 61.4052L44.5803 54.3522L66.0803 42.9202Z" fill="url(#paint4_linear)" />
    <path fill-rule="evenodd" clip-rule="evenodd" d="M66.0803 34.9001L73.0803 38.5821V45.0281L66.0803 42.9251V34.9001Z"
      fill="url(#paint5_linear)" />
  </g>
  <defs>
    <linearGradient id="paint0_linear" x1="83.3045" y1="11.4083" x2="69.6917" y2="-8.76398"
      gradientUnits="userSpaceOnUse">
      <stop stop-color="white" />
      <stop offset="1" />
    </linearGradient>
    <linearGradient id="paint1_linear" x1="36.9167" y1="-4.50226" x2="18.6815" y2="8.59294"
      gradientUnits="userSpaceOnUse">
      <stop stop-color="white" />
      <stop offset="1" />
    </linearGradient>
    <linearGradient id="paint2_linear" x1="17.7836" y1="17.1204" x2="14.4183" y2="21.2395"
      gradientUnits="userSpaceOnUse">
      <stop stop-color="white" />
      <stop offset="1" />
    </linearGradient>
    <linearGradient id="paint3_linear" x1="5.86224" y1="50.408" x2="19.475" y2="70.5803" gradientUnits="userSpaceOnUse">
      <stop stop-color="white" />
      <stop offset="1" />
    </linearGradient>
    <linearGradient id="paint4_linear" x1="52.247" y1="66.3176" x2="70.4822" y2="53.2224"
      gradientUnits="userSpaceOnUse">
      <stop stop-color="white" />
      <stop offset="1" />
    </linearGradient>
    <linearGradient id="paint5_linear" x1="71.3801" y1="44.6999" x2="74.7454" y2="40.5808"
      gradientUnits="userSpaceOnUse">
      <stop stop-color="white" />
      <stop offset="1" />
    </linearGradient>
  </defs>
</svg>