<svg version="1.0" xmlns="http://www.w3.org/2000/svg" width="512" height="512" viewBox="0 0 512  512 "
  preserveAspectRatio="xMidYMid meet">
  <g transform="translate(0,512) scale(0.1,-0.1)" fill="#2C466D" stroke="none">
    <path d="M0 2560 l0 -2560 2560 0 2560 0 0 2560 0 2560 -2560 0 -2560 0 0
-2560z m3551 1461 c514 -259 940 -475 948 -480 11 -7 -5 -44 -83 -184 -53 -96
-103 -182 -110 -192 -12 -16 -80 16 -822 390 -445 224 -837 423 -872 442 l-63
34 -712 -360 -712 -359 -3 -251 -2 -250 298 -150 c164 -83 306 -157 317 -164
17 -14 13 -24 -89 -205 l-107 -191 -388 193 c-213 107 -401 206 -418 220 -17
15 -41 46 -52 69 -20 42 -21 58 -21 475 0 415 1 434 21 476 11 24 30 53 43 65
21 20 1673 860 1746 888 21 8 58 12 91 9 51 -3 147 -50 990 -475z m389 -1201
c233 -117 395 -204 419 -225 73 -66 71 -52 71 -539 0 -481 1 -476 -62 -536
-22 -21 -339 -186 -894 -466 l-859 -434 -69 0 -68 0 -933 470 c-513 259 -940
476 -949 483 -15 11 -6 30 84 192 56 99 106 185 111 190 7 7 306 -139 884
-430 l874 -440 143 73 c79 39 398 201 711 358 l567 286 0 252 0 251 -315 159
c-173 88 -315 162 -315 164 0 7 212 382 216 382 2 0 175 -86 384 -190z" />
  </g>
</svg>